<svg xmlns="http://www.w3.org/2000/svg" version="1.1" viewBox="0.81 -0.55 527.61 525.92">
<path d="M0 0 C3.46799561 0.02148273 6.93392077 0.00001907 10.40185547 -0.02539062 C49.11097716 -0.07401374 86.23588099 9.7677945 120.96826172 26.52148438 C122.05204102 27.04282959 122.05204102 27.04282959 123.15771484 27.57470703 C146.43321435 38.93742192 167.39417252 54.56277085 185.96826172 72.52148438 C186.62149414 73.15280273 187.27472656 73.78412109 187.94775391 74.43457031 C196.14208576 82.39753279 204.05903098 90.39369331 210.96826172 99.52148438 C211.38350098 100.0603125 211.79874023 100.59914063 212.2265625 101.15429688 C255.07069431 156.88446906 273.93773139 227.21282688 265.37011719 296.92529297 C264.93548361 300.12994032 264.46449434 303.32582657 263.96826172 306.52148438 C263.8179248 307.49746582 263.66758789 308.47344727 263.51269531 309.47900391 C253.42311217 371.49379375 217.35963916 432.69539873 166.96826172 470.52148438 C166.31631836 471.01213379 165.664375 471.5027832 164.99267578 472.00830078 C155.0067039 479.48319344 144.86979763 486.45396286 133.96826172 492.52148438 C132.81898193 493.16682129 132.81898193 493.16682129 131.64648438 493.82519531 C97.6073898 512.77839992 58.16353117 525.49047037 18.97216797 525.75976562 C17.82578354 525.76783737 16.67939911 525.77590912 15.49827576 525.78422546 C13.07186362 525.79800822 10.64543258 525.80875613 8.21899414 525.81665039 C5.79054895 525.82806362 3.36212666 525.84834146 0.93383789 525.87817383 C-68.29397457 526.72582267 -132.59605962 498.2809038 -182.03173828 450.52148438 C-182.55429199 450.02084473 -183.0768457 449.52020508 -183.61523438 449.00439453 C-190.30696501 442.57568639 -196.31490635 435.82466234 -202.03173828 428.52148438 C-202.82193359 427.53664063 -203.61212891 426.55179687 -204.42626953 425.53710938 C-247.46187496 371.4120516 -265.87306819 301.56679643 -258.71923828 233.13476562 C-251.80081622 173.72075712 -225.40239237 120.30410618 -184.03173828 77.52148438 C-183.49871094 76.96654297 -182.96568359 76.41160156 -182.41650391 75.83984375 C-175.69840645 68.86886935 -168.7164762 62.42681029 -161.03173828 56.52148438 C-160.0683252 55.76810791 -160.0683252 55.76810791 -159.08544922 54.99951172 C-113.5167516 19.51878095 -57.85265468 -0.42388869 0 0 Z " fill="#17197C" transform="translate(261.03173828125,-0.521484375)"/>
<path d="M0 0 C1.10412068 -0.00785502 1.10412068 -0.00785502 2.23054683 -0.01586872 C4.67441472 -0.03075999 7.11807123 -0.03157146 9.5619812 -0.03224182 C11.32367806 -0.03987076 13.08537162 -0.04829951 14.84706116 -0.0574646 C19.61804295 -0.07934695 24.38896067 -0.08820033 29.15998697 -0.09329104 C32.14651013 -0.09694274 35.13301672 -0.10318708 38.11953354 -0.11029243 C48.55527223 -0.13476742 58.99096138 -0.14783413 69.42672729 -0.15138245 C79.12655743 -0.1550138 88.8260704 -0.18488556 98.52580369 -0.22678703 C106.8751702 -0.26157977 115.22443208 -0.27693246 123.57387054 -0.27762848 C128.5508969 -0.27841838 133.52760002 -0.28702413 138.50455093 -0.31562614 C143.19151291 -0.34196047 147.87788719 -0.34392703 152.56488991 -0.3279705 C154.27479023 -0.32616803 155.98472555 -0.33273676 157.69455147 -0.34878922 C171.14943205 -0.46729882 183.57393708 1.09565864 194.23336792 10.26634216 C203.98348414 19.92252663 209.04878643 29.762632 209.51071167 43.52415466 C209.35380276 56.39068515 203.28847918 67.360087 194.26071167 76.27415466 C193.27071167 76.76915466 193.27071167 76.76915466 192.26071167 77.27415466 C192.98125014 80.39072918 192.98125014 80.39072918 195.44821167 81.89915466 C202.55504574 87.90048121 207.28120677 97.29024782 209.26071167 106.27415466 C209.66366412 111.12603114 209.84967576 115.00835262 207.26071167 119.27415466 C205.11188455 120.7561044 203.37687746 121.25032578 200.82321167 121.77415466 C197.69229486 121.16324407 196.23640104 119.8906126 194.31149292 117.37571716 C192.55350305 113.85973742 192.35557313 110.10798056 191.83883667 106.24681091 C190.44791073 99.09482011 186.02860066 94.39407537 180.26071167 90.27415466 C174.13201447 86.77204198 169.08016247 86.15047465 162.08305359 86.12698364 C161.37121546 86.12330695 160.65937733 86.11963027 159.92596835 86.11584216 C157.5464125 86.10485027 155.16690038 86.10096916 152.787323 86.09715271 C151.07869327 86.09088467 149.37006489 86.08423757 147.66143799 86.07723999 C142.05521588 86.056238 136.44899363 86.04584134 130.84274292 86.03587341 C128.90978163 86.03182444 126.97682048 86.02770748 125.04385948 86.02352333 C115.96160769 86.00448029 106.87936398 85.99024729 97.79709607 85.98191136 C87.32640695 85.97214138 76.85592937 85.94582433 66.38531476 85.90541047 C58.28321208 85.87521554 50.18116993 85.86043929 42.0790121 85.85713035 C37.24406995 85.85478378 32.40935402 85.84587449 27.57447243 85.82066917 C23.02306311 85.7973242 18.47202795 85.79318096 13.92057419 85.80343056 C12.25576086 85.80392446 10.59092869 85.79764708 8.92617226 85.78387451 C-1.54994542 85.70209654 -12.1891241 85.94028741 -20.35647583 93.54759216 C-25.55949539 100.04401771 -28.70819141 107.23294206 -28.20022583 115.60227966 C-26.9311668 122.95852016 -24.03112638 130.16168533 -17.84866333 134.64524841 C-12.47792766 138.15611821 -8.58411325 139.39728103 -2.12882996 139.40545654 C-0.41493324 139.41146881 -0.41493324 139.41146881 1.33358765 139.41760254 C2.58305176 139.41707382 3.83251587 139.4165451 5.11984253 139.41600037 C7.14456297 139.4213336 9.1692834 139.42667281 11.19400322 139.43223703 C13.3684863 139.43743031 15.54296334 139.44034634 17.7174511 139.4428196 C22.25164969 139.44873694 26.7857701 139.46528343 31.31993103 139.48416138 C32.8730268 139.49049839 34.42612262 139.49682402 35.97921848 139.50313854 C36.75689898 139.50630435 37.53457947 139.50947016 38.33582604 139.51273191 C48.88979438 139.55479409 59.4437256 139.58779336 69.99777222 139.6000824 C77.12010155 139.6084607 84.24223653 139.63094018 91.36446863 139.66943806 C95.13228319 139.68920197 98.89980721 139.70160218 102.66767693 139.69660378 C106.21125553 139.69195986 109.75428299 139.70574765 113.29775047 139.73361588 C115.21591146 139.74382583 117.13414582 139.73427194 119.05230713 139.72412109 C120.77043358 139.74282257 120.77043358 139.74282257 122.52326965 139.76190186 C124.01292944 139.76548439 124.01292944 139.76548439 125.53268337 139.76913929 C129.05754164 140.42166464 130.73357046 141.77114454 133.26071167 144.27415466 C134.32321167 147.77415466 134.32321167 147.77415466 134.26071167 151.27415466 C132.41934993 153.6869735 130.95769341 154.92566379 128.26071167 156.27415466 C126.4668781 156.37092466 124.66942626 156.40319351 122.87298584 156.40545654 C121.72905869 156.40946472 120.58513153 156.4134729 119.40653992 156.41760254 C117.51460152 156.41680946 117.51460152 156.41680946 115.58444214 156.41600037 C114.24738958 156.41903139 112.91033805 156.42255268 111.57328796 156.42652893 C108.68950154 156.43442484 105.80572753 156.43956554 102.92193222 156.4428196 C98.35766565 156.44872803 93.79347713 156.46526841 89.22924805 156.48416138 C87.66649442 156.49049914 86.10374074 156.49682476 84.54098701 156.50313854 C83.75822026 156.50630435 82.9754535 156.50947016 82.16896653 156.51273191 C71.54168467 156.55479291 60.91443837 156.58776394 50.28707886 156.6000824 C43.12115424 156.60847401 35.95542213 156.63100819 28.78959382 156.66943806 C24.99873923 156.68916757 21.20817222 156.70161387 17.41726303 156.69660378 C13.8466189 156.6919426 10.27651867 156.70584181 6.70598412 156.73361588 C4.78003187 156.74377367 2.85400695 156.73429924 0.92805481 156.72412109 C-8.19179318 156.82206955 -15.07942012 158.61428645 -21.73928833 165.27415466 C-26.97249161 173.56129527 -28.52031416 179.38859921 -27.73928833 189.27415466 C-26.13230446 196.30228893 -22.72097976 202.13535956 -16.73928833 206.27415466 C-9.66635168 210.3467009 -3.44528299 210.83780848 4.60177612 210.75657654 C5.80610794 210.76048904 7.01043976 210.76440155 8.25126648 210.76843262 C11.52796652 210.77593446 14.80408888 210.7662266 18.08073831 210.74993324 C21.51953303 210.73810415 24.95820878 210.75209243 28.39698792 210.76426697 C37.12243367 210.79092617 45.84774273 210.78429871 54.57321167 210.77415466 C64.01232584 210.76319673 73.45122665 210.757955 82.89030427 210.79144907 C86.30987758 210.80262656 89.72902569 210.8052213 93.14858437 210.78829956 C96.95483816 210.77187026 100.76036741 210.77927682 104.56661987 210.79173279 C105.69759094 210.78041824 106.82856201 210.7691037 107.99380493 210.75744629 C109.02965225 210.76557846 110.06549957 210.77371063 111.13273621 210.78208923 C112.48129936 210.77982708 112.48129936 210.77982708 113.85710621 210.77751923 C117.06804536 211.44096678 118.26398922 212.7204112 120.26071167 215.27415466 C120.76071167 218.77415466 120.76071167 218.77415466 120.26071167 222.27415466 C118.2518351 224.85060444 117.05284476 226.10997299 113.81863403 226.78031254 C112.90136536 226.78311946 111.98409668 226.78592638 111.03903198 226.78881836 C109.98227768 226.80154282 108.92552338 226.81426727 107.83674622 226.82737732 C106.68243607 226.82085144 105.52812592 226.81432556 104.33883667 226.80760193 C103.11882462 226.8162175 101.89881256 226.82483307 100.64183044 226.83370972 C97.2959894 226.85253157 93.95113806 226.85325887 90.60531998 226.84438825 C87.80525296 226.83927188 85.00527432 226.84657736 82.20521641 226.85386032 C75.58935884 226.87086858 68.97373178 226.86729021 62.35787964 226.85057068 C55.55725485 226.83370474 48.75727455 226.84940461 41.95672035 226.88179356 C36.10252478 226.90860808 30.24852833 226.91573204 24.39427757 226.90727848 C20.90507104 226.90237657 17.4162507 226.90441224 13.92709351 226.92506599 C10.023727 226.94706296 6.12111675 226.92789119 2.21774292 226.90525818 C1.07962662 226.91695038 -0.05848969 226.92864258 -1.23109436 226.94068909 C-13.59647856 226.79571621 -23.89451564 222.03459751 -32.64163208 213.39524841 C-36.61674562 209.10078114 -39.55945875 204.70823219 -41.73928833 199.27415466 C-42.27296021 197.95157654 -42.27296021 197.95157654 -42.81741333 196.60227966 C-45.61396417 186.50625713 -44.99244202 174.32020402 -40.37210083 164.93431091 C-36.93684709 159.33764154 -33.24745677 153.94626696 -27.73928833 150.27415466 C-29.08913752 147.2020841 -30.54765337 145.35901212 -33.05178833 143.14915466 C-40.56091768 135.85904159 -43.92595395 125.72256956 -44.11990356 115.41038513 C-44.08542376 100.3741916 -39.94932879 91.45988108 -29.30178833 80.71165466 C-28.45616333 79.90727966 -27.61053833 79.10290466 -26.73928833 78.27415466 C-27.24717896 77.88485779 -27.75506958 77.49556091 -28.27835083 77.09446716 C-36.261928 70.6059419 -42.63221985 61.3674124 -44.05691528 50.95213318 C-44.21257429 48.46737284 -44.25816095 46.01366796 -44.23928833 43.52415466 C-44.23356812 42.64525574 -44.2278479 41.76635681 -44.22195435 40.86082458 C-43.91118798 29.49012385 -39.59528858 20.47242878 -31.73928833 12.27415466 C-22.57986673 4.05274612 -12.30626952 0.04371407 0 0 Z " fill="#FCFCFD" transform="translate(156.73928833007813,131.72584533691406)"/>
<path d="M0 0 C0.99 0.4228125 1.98 0.845625 3 1.28125 C18.54507417 8.87713851 29.13563087 22.59003024 35 38.5625 C40.89074478 56.25518832 38.2290431 73.49706889 30 90 C23.50119705 101.16929817 14.50182721 110.11738609 3 116 C2.12472656 116.46277344 1.24945313 116.92554688 0.34765625 117.40234375 C-14.47105418 124.7372865 -32.3900053 125.18384343 -48 120 C-55.8686781 116.79027964 -62.63087825 112.60482714 -69 107 C-69.75023437 106.35546875 -70.50046875 105.7109375 -71.2734375 105.046875 C-83.01764614 94.2245667 -90.15360413 78.41843122 -91.23828125 62.50390625 C-91.57237784 44.76161904 -86.13658208 28.26612536 -74 15 C-53.8979017 -5.3393912 -26.50229608 -11.32370832 0 0 Z " fill="#191A7D" transform="translate(379,270)"/>
<path d="M0 0 C1.71598041 -0.00706806 3.43195459 -0.01581678 5.1479187 -0.02610779 C9.78445115 -0.04851374 14.42064082 -0.04568248 19.05720663 -0.03678632 C22.93868331 -0.03165731 26.82009666 -0.03898458 30.70156682 -0.04625839 C39.86425247 -0.06322994 49.02677148 -0.05971979 58.18945312 -0.04296875 C67.61787626 -0.02605389 77.04583617 -0.04187948 86.47420871 -0.07419163 C94.59176284 -0.1009496 102.70917332 -0.10814669 110.82676709 -0.09967655 C115.6650611 -0.09476495 120.50307663 -0.0968666 125.3413353 -0.11746407 C129.89376034 -0.13591873 134.44552316 -0.12974395 138.99791336 -0.10526466 C140.66026231 -0.10028745 142.32266257 -0.10366542 143.98497009 -0.11641312 C155.47456236 -0.19749373 165.83995879 0.86630684 174.89892578 8.72094727 C180.740118 15.34762988 182.62436037 22.86849414 182.27783203 31.57641602 C181.34749517 38.83687994 178.65187214 45.0419934 173.05709648 49.88674259 C163.60571829 57.09823362 153.80562196 57.25031432 142.453125 57.16455078 C140.71242547 57.16969766 138.97173116 57.17698472 137.23104858 57.18623352 C132.53269976 57.20465512 127.83492271 57.19186881 123.13659811 57.17214322 C118.20540871 57.15568392 113.27425346 57.16457947 108.3430481 57.16966248 C100.06649709 57.17417447 91.79017274 57.15836703 83.51367188 57.13037109 C73.95967685 57.0983021 64.40609 57.0983461 54.85206592 57.11558586 C45.63895696 57.1314745 36.42599693 57.12470372 27.21289444 57.10764885 C23.3016066 57.10079585 19.39043876 57.1017927 15.47915268 57.1091938 C10.87096307 57.11688099 6.26323559 57.10465141 1.65512466 57.07734489 C-0.0310504 57.07048625 -1.71726884 57.07033592 -3.40344238 57.07756042 C-15.42446766 57.12311311 -24.25564354 55.89954256 -33.37451172 47.47094727 C-39.19190787 40.94282851 -40.53165173 33.46736593 -40.43701172 24.95922852 C-39.73732232 17.82402383 -36.53771067 12.56431421 -31.41357422 7.65844727 C-21.64629977 0.1775102 -11.81541389 -0.05138623 0 0 Z " fill="#1A1C7D" transform="translate(168.10107421875,146.466552734375)"/>
<path d="M0 0 C0.99 0.4228125 1.98 0.845625 3 1.28125 C18.54507417 8.87713851 29.13563087 22.59003024 35 38.5625 C40.89074478 56.25518832 38.2290431 73.49706889 30 90 C23.50119705 101.16929817 14.50182721 110.11738609 3 116 C2.12472656 116.46277344 1.24945313 116.92554688 0.34765625 117.40234375 C-14.47105418 124.7372865 -32.3900053 125.18384343 -48 120 C-55.8686781 116.79027964 -62.63087825 112.60482714 -69 107 C-69.75023437 106.35546875 -70.50046875 105.7109375 -71.2734375 105.046875 C-83.01764614 94.2245667 -90.15360413 78.41843122 -91.23828125 62.50390625 C-91.57237784 44.76161904 -86.13658208 28.26612536 -74 15 C-53.8979017 -5.3393912 -26.50229608 -11.32370832 0 0 Z M-63.7734375 26.35546875 C-71.45347458 35.47719701 -75.59419447 45.30667382 -75.4375 57.25 C-75.42920166 58.07628906 -75.42090332 58.90257812 -75.41235352 59.75390625 C-75.03544966 73.55314778 -69.90843638 85.59413038 -59.9375 95.25 C-46.85746908 106.20650258 -32.55578086 108.37111036 -16 107 C-5.0860469 105.05338832 5.34502679 97.90937966 12.33203125 89.4453125 C21.30786739 76.28635834 23.41338252 63.64039774 22 48 C20.05056934 39.30186769 15.92144031 32.55357663 10 26 C9.25169922 25.07960938 9.25169922 25.07960938 8.48828125 24.140625 C1.77310142 16.49513059 -10.33360834 10.58798643 -20.41015625 9.69921875 C-37.86225087 9.64322272 -51.56659155 13.4317128 -63.7734375 26.35546875 Z " fill="#FAFAFC" transform="translate(379,270)"/>
<path d="M0 0 C0.73397003 -0.0071553 1.46794006 -0.01431061 2.22415161 -0.02168274 C4.64096053 -0.03853825 7.05590603 -0.01918808 9.47265625 0.00219727 C11.15747226 0.00136827 12.84228819 -0.00109229 14.52709961 -0.00511169 C18.0544475 -0.00796752 21.58115966 0.00670975 25.10839844 0.03417969 C29.62464354 0.06826264 34.13975212 0.06224252 38.65605164 0.04351711 C42.1340071 0.03293697 45.61169914 0.04189405 49.08963013 0.05690193 C50.7545595 0.06207679 52.41951647 0.06161039 54.08444214 0.05535698 C56.41366504 0.04989225 58.74127368 0.07031726 61.0703125 0.09765625 C61.75513702 0.09113037 62.43996155 0.08460449 63.14553833 0.07788086 C66.59781591 0.14661308 68.50491256 0.61231676 71.46264648 2.44960022 C73.53515625 4.63110352 73.53515625 4.63110352 74.16015625 8.06860352 C73.36824131 12.58251868 72.09909803 13.80942669 68.53515625 16.63110352 C65.83508749 17.1275941 63.7624969 17.31786449 61.0703125 17.27807617 C59.96935745 17.29121857 59.96935745 17.29121857 58.84616089 17.30462646 C56.42938436 17.32656359 54.01445009 17.31208998 51.59765625 17.29516602 C49.91283824 17.29853584 48.2280226 17.30338984 46.54321289 17.30966187 C43.01587733 17.31702542 39.48917579 17.30634498 35.96191406 17.28295898 C31.44551631 17.25447078 26.93060413 17.27087763 22.41426086 17.3008213 C18.93628796 17.31890871 15.45866598 17.3131298 11.98068237 17.30018234 C10.31574324 17.29685228 8.65077201 17.30092138 6.98587036 17.31258011 C4.65639142 17.32531361 2.32930142 17.30588167 0 17.27807617 C-0.68482452 17.28819733 -1.36964905 17.29831848 -2.07522583 17.30874634 C-5.85943305 17.22526636 -7.40384959 16.68012685 -10.39233398 14.27816772 C-12.46484375 11.63110352 -12.46484375 11.63110352 -13.08984375 8.63110352 C-11.61124527 1.5338308 -6.56994426 -0.11217049 0 0 Z " fill="#F5F5F9" transform="translate(241.46484375,166.368896484375)"/>
<path d="M0 0 C0.73382401 -0.00686325 1.46764801 -0.0137265 2.22370911 -0.02079773 C4.64551228 -0.03907453 7.06666815 -0.03522709 9.48852539 -0.02954102 C11.17477123 -0.03410254 12.8610152 -0.03940803 14.54725647 -0.04542542 C18.08040929 -0.05435832 21.6133361 -0.05193157 25.14648438 -0.04199219 C29.67053898 -0.0305044 34.19381283 -0.05070968 38.71776485 -0.07990932 C42.19996584 -0.09827076 45.68197974 -0.09797898 49.164217 -0.0922718 C50.83195656 -0.09211857 52.49970879 -0.09816473 54.16740227 -0.11056328 C56.50142002 -0.12547038 58.83399561 -0.11479984 61.16796875 -0.09765625 C61.85436432 -0.10732422 62.54075989 -0.11699219 63.24795532 -0.12695312 C66.70681953 -0.07385193 68.61378486 0.38248187 71.58106995 2.21665955 C73.64868164 4.40405273 73.64868164 4.40405273 74.21118164 7.90405273 C73.55029496 12.01623653 72.94410449 12.95004649 69.64868164 15.40405273 C66.99402861 15.8040938 64.75120446 15.96193252 62.09790039 15.9375 C60.96549423 15.95042336 60.96549423 15.95042336 59.81021118 15.96360779 C57.31851776 15.98628283 54.82794754 15.97952708 52.33618164 15.97045898 C50.60269842 15.97569367 48.86921806 15.98196958 47.13574219 15.98924255 C43.50417672 15.99964936 39.87300303 15.99508106 36.24145508 15.98046875 C31.5871029 15.96327412 26.93398441 15.98678224 22.2797699 16.02195835 C18.70064104 16.04391544 15.12180821 16.04249516 11.54263306 16.03419304 C9.82661587 16.0333727 8.11057712 16.04025187 6.3946228 16.05496407 C3.99546376 16.07238136 1.59853216 16.05789465 -0.80053711 16.03515625 C-1.86357559 16.05269455 -1.86357559 16.05269455 -2.9480896 16.07058716 C-6.6212715 15.99973542 -8.10276048 15.63661853 -10.82324219 13.09117126 C-12.35131836 10.40405273 -12.35131836 10.40405273 -12.35131836 6.77905273 C-10.40408517 0.20714072 -6.22807633 -0.04072603 0 0 Z " fill="#FDFDFE" transform="translate(241.351318359375,237.595947265625)"/>
<path d="M0 0 C1.9375 1.125 1.9375 1.125 3 3 C3.67865736 6.46115254 3.76568827 8.80471764 1.81640625 11.84765625 C-0.03138028 14.00562277 -1.98215654 15.99961194 -4 18 C-4.86882812 18.89332031 -5.73765625 19.78664063 -6.6328125 20.70703125 C-11.35914694 25.54051809 -16.19235692 30.21026864 -21.37109375 34.5625 C-23.16433704 36.06779682 -23.16433704 36.06779682 -25 38.4375 C-27.53045646 40.41441911 -29.66871494 40.74567675 -32.85546875 40.57421875 C-37.20980344 39.408304 -39.97322066 36.18323315 -43 33 C-44.01900391 31.99259766 -44.01900391 31.99259766 -45.05859375 30.96484375 C-47.97713818 27.91710822 -49.8026864 25.93275519 -50.6875 21.75 C-49.81463343 18.25853373 -49.00339193 17.00226129 -46 15 C-42.35948119 14.31310966 -40.12390394 14.24344209 -36.9921875 16.3515625 C-35.25078168 17.83916018 -33.60190345 19.3640135 -32 21 C-28.44961928 19.49287699 -26.20886613 17.42833908 -23.5234375 14.68359375 C-22.688125 13.83732422 -21.8528125 12.99105469 -20.9921875 12.11914062 C-20.12851562 11.23419922 -19.26484375 10.34925781 -18.375 9.4375 C-16.65585815 7.68402618 -14.93460987 5.93261425 -13.2109375 4.18359375 C-12.45087402 3.40556396 -11.69081055 2.62753418 -10.90771484 1.82592773 C-7.24205654 -1.68257732 -4.84571972 -1.02015152 0 0 Z " fill="#FAFAFC" transform="translate(376,309)"/>
<path d="M0 0 C0.78436935 -0.00807175 1.56873871 -0.01614349 2.37687683 -0.02445984 C4.03874502 -0.03829937 5.70064162 -0.04902212 7.36254883 -0.05688477 C9.8978501 -0.07408228 12.43184189 -0.1179653 14.96679688 -0.16210938 C16.58202167 -0.1722379 18.19725754 -0.18075351 19.8125 -0.1875 C20.56787552 -0.20500809 21.32325104 -0.22251617 22.10151672 -0.24055481 C25.82671276 -0.22528923 27.91250152 0.11501202 31.08227539 2.13989258 C33.10546875 4.23828125 33.10546875 4.23828125 33.76953125 6.23828125 C33.75664062 6.89828125 33.74375 7.55828125 33.73046875 8.23828125 C33.74335938 8.89828125 33.75625 9.55828125 33.76953125 10.23828125 C32.7094883 13.4308812 30.90980278 14.44283748 28.10546875 16.23828125 C25.17380988 16.64085004 22.62677077 16.82359809 19.69921875 16.8046875 C18.49573792 16.81398537 18.49573792 16.81398537 17.26794434 16.82347107 C15.5769166 16.83055368 13.88581891 16.82742241 12.19482422 16.81469727 C9.61294926 16.80082145 7.03469465 16.83493073 4.453125 16.87304688 C2.8059887 16.87399809 1.15884788 16.87213914 -0.48828125 16.8671875 C-1.25611938 16.88044571 -2.02395752 16.89370392 -2.81506348 16.90736389 C-6.82954816 16.83789359 -8.6906945 16.39833171 -11.88476562 13.89038086 C-13.89453125 11.23828125 -13.89453125 11.23828125 -14.45703125 8.17578125 C-13.7763161 4.62093544 -12.69380666 3.46123525 -9.89453125 1.23828125 C-6.76960706 -0.32418084 -3.43257692 0.03329998 0 0 Z " fill="#F5F5F9" transform="translate(242.89453125,307.76171875)"/>
<path d="M0 0 C1.9375 1.0625 1.9375 1.0625 3 3 C3.39281877 6.09344778 3.63008105 8.04575205 3 11 C0.42627616 14.02791041 -1.15246594 14.86162709 -5.0625 15.5 C-8 15 -8 15 -10.375 13.5 C-12.34683501 10.46640767 -12.64552934 8.48068984 -12.4453125 4.91015625 C-12 3 -12 3 -9.9375 0.4375 C-6.10852228 -1.43625505 -4.06665724 -1.12962701 0 0 Z " fill="#F8F8FB" transform="translate(183,309)"/>
<path d="M0 0 C2.4375 1.5625 2.4375 1.5625 4 4 C4.72468526 8.42863214 4.49454049 10.28066838 1.9375 14 C-1 16 -1 16 -4.625 16.0625 C-8 15 -8 15 -9.9375 13.375 C-11.43699866 10.02317947 -11.45377473 7.63019782 -11 4 C-8.11188513 -0.5054592 -5.11821063 -0.73117295 0 0 Z " fill="#F8F8FB" transform="translate(182,238)"/>
<path d="M0 0 C2.4375 1.5625 2.4375 1.5625 4 4 C4.56288002 7.94016013 4.60396028 10.05782196 2.4375 13.4375 C-0.94217804 15.60396028 -3.05983987 15.56288002 -7 15 C-9.4375 13.4375 -9.4375 13.4375 -11 11 C-11.56288002 7.05983987 -11.60396028 4.94217804 -9.4375 1.5625 C-6.05782196 -0.60396028 -3.94016013 -0.56288002 0 0 Z " fill="#F9FAFC" transform="translate(182,168)"/>
</svg>